<?xml version="1.0" encoding="UTF-8" standalone="no"?>
<svg width="600px" height="600px" viewBox="0 0 600 600" version="1.1" xmlns="http://www.w3.org/2000/svg" xmlns:xlink="http://www.w3.org/1999/xlink" xmlns:sketch="http://www.bohemiancoding.com/sketch/ns">
    <!-- Generator: Sketch 3.0.4 (8053) - http://www.bohemiancoding.com/sketch -->
    <title>gamepad</title>
    <desc>Created with Sketch.</desc>
    <defs></defs>
    <g id="Page-1" stroke="none" stroke-width="1" fill="none" fill-rule="evenodd" sketch:type="MSPage">
        <g id="gamepad" sketch:type="MSLayerGroup">
            <g id="Group" sketch:type="MSShapeGroup">
                <circle id="Oval" fill="#76C2AF" cx="299.759046" cy="299.759046" r="299.759046"></circle>
                <g transform="translate(120.000000, 69.000000)">
                    <path d="M181,347.691 C253.248,347.691 255.997,371.652 283.09,395.614 C310.183,419.575 361.621,427.525 361.621,347.691 C361.621,267.858 325.497,219.898 325.497,219.898 C325.497,219.898 290.944,160.792 243.825,207.006 C210.263,239.924 151.738,239.924 118.176,207.006 C71.058,160.791 36.504,219.898 36.504,219.898 C36.504,219.898 0.38,267.858 0.38,347.691 C0.38,427.525 51.818,419.575 78.911,395.614 C106.003,371.652 108.752,347.691 181,347.691 L181,347.691 Z" id="Shadow" fill="#D3D2D2"></path>
                    <path d="M181,324.691 C253.248,324.691 255.997,348.652 283.09,372.614 C310.183,396.575 361.621,404.525 361.621,324.691 C361.621,244.858 325.497,196.898 325.497,196.898 C325.497,196.898 290.944,137.792 243.825,184.006 C210.263,216.924 151.738,216.924 118.176,184.006 C71.058,137.791 36.504,196.898 36.504,196.898 C36.504,196.898 0.38,244.858 0.38,324.691 C0.38,404.525 51.818,396.575 78.911,372.614 C106.003,348.652 108.752,324.691 181,324.691 L181,324.691 Z" id="Shape" fill="#4F5D73"></path>
                    <circle id="Oval" fill="#E0E0D1" cx="275.706" cy="302.706" r="15.706"></circle>
                    <circle id="Oval" fill="#E0E0D1" cx="306.706" cy="263.706" r="15.706"></circle>
                    <path d="M78.91,314.45 C78.91,320.975 73.636,326.266 67.13,326.266 L67.13,326.266 C60.625,326.266 55.35,320.975 55.35,314.45 L55.35,259.55 C55.35,253.025 60.624,247.734 67.13,247.734 L67.13,247.734 C73.635,247.734 78.91,253.025 78.91,259.55 L78.91,314.45 L78.91,314.45 Z" id="Shape" fill="#E0E0D1"></path>
                    <path d="M39.681,298.78 C33.156,298.78 27.865,293.506 27.865,287 L27.865,287 C27.865,280.495 33.156,275.22 39.681,275.22 L94.58,275.22 C101.105,275.22 106.396,280.494 106.396,287 L106.396,287 C106.396,293.505 101.105,298.78 94.58,298.78 L39.681,298.78 L39.681,298.78 Z" id="Shape" fill="#E0E0D1"></path>
                    <circle id="Dot-Shadow" fill="#D3D2D2" cx="182" cy="86" r="70"></circle>
                    <circle id="Dot" fill="#4F5D73" cx="182" cy="70" r="70"></circle>
                </g>
            </g>
        </g>
    </g>
</svg>